<svg width="20" height="20" viewBox="0 0 20 20" fill="none" xmlns="http://www.w3.org/2000/svg">
<g id="Group">
<path id="Vector" d="M2.94866 5.77807L2.94901 5.77779L7.44032 2.27807C7.4404 2.27801 7.44048 2.27795 7.44056 2.27789C8.61665 1.36334 10.5336 1.31851 11.7543 2.17588L11.7548 2.17622L16.9048 5.78455L16.9057 5.78516C17.3206 6.07456 17.7138 6.54936 18.0037 7.10444C18.2936 7.65955 18.4584 8.25315 18.4584 8.75839V14.8251C18.4584 16.8246 16.8316 18.4584 14.825 18.4584H5.17502C3.16914 18.4584 1.54169 16.8252 1.54169 14.8167V8.64173C1.54169 8.16959 1.69015 7.60565 1.95299 7.07047C2.21574 6.53544 2.57238 6.07073 2.94866 5.77807ZM3.10103 5.97233L3.10102 5.97232L3.09871 5.97414C2.72622 6.26794 2.40572 6.71793 2.17959 7.17706C1.95378 7.63558 1.79169 8.16493 1.79169 8.64173V14.8167C1.79169 16.6827 3.30534 18.2084 5.17502 18.2084H14.825C16.6928 18.2084 18.2084 16.6929 18.2084 14.8251V8.75839C18.2084 8.25303 18.0317 7.69559 17.7819 7.21673C17.5328 6.7393 17.1774 6.27545 16.7597 5.98902L11.6122 2.38245C11.0329 1.9759 10.2934 1.79837 9.58605 1.81372C8.87901 1.82906 8.14926 2.03837 7.5927 2.47233C7.59265 2.47236 7.5926 2.4724 7.59255 2.47244L3.10103 5.97233Z" fill="#475569" stroke="#475569"/>
<path id="Vector_2" d="M10 15.625C9.65833 15.625 9.375 15.3417 9.375 15V12.5C9.375 12.1583 9.65833 11.875 10 11.875C10.3417 11.875 10.625 12.1583 10.625 12.5V15C10.625 15.3417 10.3417 15.625 10 15.625Z" fill="#475569"/>
</g>
</svg>
