<svg width="24" height="24" viewBox="0 0 24 24" fill="none" xmlns="http://www.w3.org/2000/svg">
<g id="vuesax/bold/chart">
<g id="Group">
<path id="Vector" d="M22 21.5H2C1.86614 21.5 1.75 21.3839 1.75 21.25C1.75 21.1161 1.86614 21 2 21H22C22.1339 21 22.25 21.1161 22.25 21.25C22.25 21.3839 22.1339 21.5 22 21.5Z" fill="#9CA3AF" stroke="#9CA3AF"/>
<path id="Vector_2" d="M13.75 21.5H10.25V4C10.25 3.50568 10.3531 3.13335 10.5388 2.894C10.7067 2.67762 10.9963 2.5 11.55 2.5H12.45C13.0037 2.5 13.2933 2.67762 13.4612 2.894C13.6469 3.13335 13.75 3.50568 13.75 4V21.5Z" fill="#9CA3AF" stroke="#9CA3AF"/>
<path id="Vector_3" d="M6.5 21.5H3.5V10C3.5 9.4964 3.59402 9.11437 3.76161 8.87137C3.90746 8.65988 4.14437 8.5 4.6 8.5H5.4C5.85563 8.5 6.09254 8.65988 6.23839 8.87137C6.40598 9.11437 6.5 9.4964 6.5 10V21.5Z" fill="#9CA3AF" stroke="#9CA3AF"/>
<path id="Vector_4" d="M20.5 21.5H17.5V15C17.5 14.4964 17.594 14.1144 17.7616 13.8714C17.9075 13.6599 18.1444 13.5 18.6 13.5H19.4C19.8556 13.5 20.0925 13.6599 20.2384 13.8714C20.406 14.1144 20.5 14.4964 20.5 15V21.5Z" fill="#9CA3AF" stroke="#9CA3AF"/>
</g>
</g>
</svg>
