<svg width="24" height="24" viewBox="0 0 24 24" fill="none" xmlns="http://www.w3.org/2000/svg">
<g id="vuesax/bold/wallet-3">
<g id="Group">
<path id="Vector" d="M17.3782 13.7885L17.3783 13.7884L17.3777 13.7826C17.3328 13.3108 17.5119 12.8676 17.8292 12.5578L17.8294 12.5579L17.8382 12.5488C18.1134 12.2661 18.494 12.1 18.92 12.1H20.97C21.267 12.1 21.5 12.3393 21.5 12.62V14.68C21.5 14.9607 21.267 15.2 20.97 15.2H19.04C18.1806 15.2 17.4435 14.5718 17.3782 13.7885Z" fill="#9CA3AF" stroke="#9CA3AF"/>
<path id="Vector_2" d="M14.8818 14.0027L14.8819 14.0038C15.0659 16.0968 16.8959 17.7 19.04 17.7H19.4561C19.1947 19.3677 17.7465 20.65 16 20.65H6C4.06614 20.65 2.5 19.0839 2.5 17.15V10.15C2.5 8.21617 4.06614 6.65002 6 6.65002H16C17.7374 6.65002 19.1946 7.93305 19.4561 9.60002H18.92C17.8283 9.60002 16.8107 10.0321 16.0762 10.7767C15.2129 11.6301 14.7791 12.8047 14.8818 14.0027ZM7 12.4H13C13.6861 12.4 14.25 11.8362 14.25 11.15C14.25 10.4639 13.6861 9.90002 13 9.90002H7C6.31821 9.90002 5.75 10.4495 5.75 11.15C5.75 11.8505 6.31821 12.4 7 12.4Z" fill="#9CA3AF" stroke="#9CA3AF"/>
<path id="Vector_3" d="M11.34 3.34998C12.2816 3.34998 13.0971 3.64921 13.6668 4.14998H6.03003C4.89046 4.14998 3.81958 4.47084 2.91457 5.02693C3.4473 4.02712 4.5087 3.34998 5.72003 3.34998H11.34Z" fill="#9CA3AF" stroke="#9CA3AF"/>
</g>
</g>
</svg>
