<svg xmlns="http://www.w3.org/2000/svg" width="24" height="24" viewBox="0 0 24 24" fill="none">
  <path d="M2.80663 10.8955L2.80663 10.8955L2.80469 10.893C2.25763 10.1897 1.99917 9.27828 2.08774 8.32765C2.08778 8.32728 2.08781 8.3269 2.08785 8.32653L2.35658 5.58947C2.56474 4.12252 2.98437 3.19141 3.61922 2.61702C4.25124 2.0452 5.18226 1.75 6.59002 1.75H8.99002H10.47H13.51H14.99H17.35C18.7525 1.75 19.6844 2.04507 20.3168 2.61418C20.9516 3.18536 21.3707 4.10946 21.5736 5.56058L21.8623 8.31786C21.8624 8.31857 21.8624 8.31928 21.8625 8.31999C21.9507 9.24282 21.7103 10.1263 21.19 10.82L21.1899 10.8199L21.1845 10.8275C20.534 11.7295 19.4891 12.25 18.31 12.25C17.2327 12.25 16.1853 11.7181 15.5047 10.843L15.0859 10.3046L14.6985 10.866C14.1038 11.7278 13.1293 12.25 12 12.25C10.8745 12.25 9.87083 11.7012 9.28477 10.8308L8.89265 10.2483L8.47049 10.8094C7.80054 11.6997 6.73572 12.25 5.64002 12.25C4.48724 12.25 3.46712 11.7559 2.80663 10.8955Z" fill="#9CA3AF" stroke="#9CA3AF"/>
  <path d="M11.35 16.66C10.08 16.79 9.12 17.87 9.12 19.15V21.89C9.12 22.16 9.33999 22.38 9.60999 22.38H14.38C14.65 22.38 14.87 22.16 14.87 21.89V19.5C14.88 17.41 13.65 16.42 11.35 16.66Z" fill="#9CA3AF"/>
  <path d="M21.37 14.4V17.38C21.37 20.14 19.13 22.38 16.37 22.38C16.1 22.38 15.88 22.16 15.88 21.89V19.5C15.88 18.22 15.49 17.22 14.73 16.54C14.06 15.93 13.15 15.63 12.02 15.63C11.77 15.63 11.52 15.64 11.25 15.67C9.47001 15.85 8.12 17.35 8.12 19.15V21.89C8.12 22.16 7.9 22.38 7.63 22.38C4.87 22.38 2.63 20.14 2.63 17.38V14.42C2.63 13.72 3.32 13.25 3.97 13.48C4.24 13.57 4.51 13.64 4.79 13.68C4.91 13.7 5.04 13.72 5.16 13.72C5.32 13.74 5.48 13.75 5.64 13.75C6.8 13.75 7.94 13.32 8.84 12.58C9.70001 13.32 10.82 13.75 12 13.75C13.19 13.75 14.29 13.34 15.15 12.6C16.05 13.33 17.17 13.75 18.31 13.75C18.49 13.75 18.67 13.74 18.84 13.72C18.96 13.71 19.07 13.7 19.18 13.68C19.49 13.64 19.77 13.55 20.05 13.46C20.7 13.24 21.37 13.72 21.37 14.4Z" fill="#9CA3AF"/>
</svg> 